<?xml version="1.0" encoding="UTF-8"?>
<!-- Generated by Pixelmator Pro 3.5.6 -->
<svg width="1920" height="1080" viewBox="0 0 1920 1080" xmlns="http://www.w3.org/2000/svg">
    <path id="Path" fill="#ffffff" stroke="none" d="M -0 0 L 2078 0 L 2078 1080 L -0 1080 Z"/>
    <path id="path1" fill="#eaeaea" stroke="none" d="M 3417.753174 942.026184 C 3417.753174 942.026184 3417.753174 182.588623 3417.753174 182.588623 C 3276.819824 132.077942 3135.886475 81.567322 3025.380859 63.399048 C 2914.875488 45.230957 2834.798096 59.405029 2736.551514 101.370911 C 2638.304688 143.336853 2521.888916 213.094543 2398.675293 222.670044 C 2275.461914 232.245544 2145.450195 181.638977 2015.385742 126.685486 C 1885.321167 71.731995 1755.203491 12.431763 1644.81189 45.468018 C 1534.420288 78.504028 1443.754761 203.876648 1334.18396 255.367981 C 1224.613159 306.859314 1128.885254 355.450989 1014.523682 368.540466 C 900.161804 381.630005 767.166199 359.217407 660.24823 312.325867 C 553.330444 265.434326 439.74231 123.082275 316.922607 85.549316 C 194.102966 48.016479 62.051361 115.302429 -70 182.588623 C -70 182.588623 -70 942.026184 -70 942.026184 Z"/>
    <path id="Rectangle" fill="#eaeaea" fill-rule="evenodd" stroke="none" d="M -52 1179 L 1963 1179 L 1963 907 L -52 907 Z"/>
    <path id="path2" fill="#bfb4ea" stroke="none" d="M -1078 1309 C -1078 1309 -1078 949 -1078 949 C -977.997498 908.643127 -877.994995 868.286255 -764.462524 882 C -650.929993 895.713745 -523.867493 963.498108 -369.637512 984 C -215.407501 1004.501892 -34.010098 977.721375 96.79792 957 C 227.605927 936.278625 307.824493 921.616272 410.335419 894 C 512.846375 866.383728 637.649658 825.813416 758.710388 856 C 879.771179 886.186584 997.089417 987.130127 1107.085449 1008 C 1217.081421 1028.869873 1319.755127 969.666138 1469.008301 934 C 1618.261475 898.333862 1814.09436 886.205261 1958.668701 924 C 2103.243164 961.794739 2196.558594 1049.512695 2301.237549 1062 C 2405.91626 1074.487305 2521.958252 1011.743591 2638 949 C 2638 949 2638 1309 2638 1309 Z"/>
</svg>
