<svg width="304" height="70" viewBox="0 0 304 70" fill="none" xmlns="http://www.w3.org/2000/svg">
<path d="M0.0681818 70V0.181816H27.6136C32.9091 0.181816 37.4205 1.19318 41.1477 3.21591C44.875 5.21591 47.7159 8 49.6705 11.5682C51.6477 15.1136 52.6364 19.2045 52.6364 23.8409C52.6364 28.4773 51.6364 32.5682 49.6364 36.1136C47.6364 39.6591 44.7386 42.4205 40.9432 44.3977C37.1705 46.375 32.6023 47.3636 27.2386 47.3636H9.68182V35.5341H24.8523C27.6932 35.5341 30.0341 35.0455 31.875 34.0682C33.7386 33.0682 35.125 31.6932 36.0341 29.9432C36.9659 28.1705 37.4318 26.1364 37.4318 23.8409C37.4318 21.5227 36.9659 19.5 36.0341 17.7727C35.125 16.0227 33.7386 14.6705 31.875 13.7159C30.0114 12.7386 27.6477 12.25 24.7841 12.25H14.8295V70H0.0681818ZM62.2244 70V0.181816H89.7699C95.0426 0.181816 99.5426 1.125 103.27 3.01136C107.02 4.875 109.872 7.52273 111.827 10.9545C113.804 14.3636 114.793 18.375 114.793 22.9886C114.793 27.625 113.793 31.6136 111.793 34.9545C109.793 38.2727 106.895 40.8182 103.099 42.5909C99.3267 44.3636 94.7585 45.25 89.3949 45.25H70.9517V33.3864H87.0085C89.8267 33.3864 92.1676 33 94.0312 32.2273C95.8949 31.4545 97.2813 30.2955 98.1903 28.75C99.1222 27.2045 99.5881 25.2841 99.5881 22.9886C99.5881 20.6705 99.1222 18.7159 98.1903 17.125C97.2813 15.5341 95.8835 14.3295 93.9972 13.5114C92.1335 12.6705 89.7813 12.25 86.9403 12.25H76.9858V70H62.2244ZM99.929 38.2273L117.281 70H100.986L84.0085 38.2273H99.929ZM139.986 0.181816V70H125.224V0.181816H139.986ZM152.131 0.181816H170.335L189.562 47.0909H190.381L209.608 0.181816H227.812V70H213.494V24.5568H212.915L194.847 69.6591H185.097L167.028 24.3864H166.449V70H152.131V0.181816ZM252.009 70H236.19L260.293 0.181816H279.315L303.384 70H287.565L270.077 16.1364H269.531L252.009 70ZM251.02 42.5568H288.384V54.0795H251.02V42.5568Z" fill="black"/>
</svg>
