<?xml version="1.0" encoding="UTF-8"?>
<!-- Generated by Pixelmator Pro 3.5.6 -->
<svg width="1920" height="1080" viewBox="0 0 1920 1080" xmlns="http://www.w3.org/2000/svg">
    <path id="Path" fill="#ffffff" stroke="none" d="M 0 0 L 1920 0 L 1920 1080 L 0 1080 Z"/>
    <path id="path1" fill="#fdf8ea" stroke="none" d="M 2441 1157 C 2441 1157 2441 286.968689 2441 286.968689 C 2305.592529 229.102356 2170.185059 171.236084 2064.012451 150.422119 C 1957.839844 129.608154 1880.902344 145.846436 1786.507813 193.923706 C 1692.113281 242.000854 1580.262207 321.917114 1461.879639 332.887024 C 1343.497314 343.856995 1218.583496 285.880798 1093.618774 222.924683 C 968.653931 159.968567 843.638184 92.032715 737.574951 129.879761 C 631.511719 167.726746 544.401123 311.356873 439.126587 370.34668 C 333.851929 429.336487 210.413696 403.686035 100.53595 418.681763 C -9.341858 433.677429 -105.658691 489.319214 -208.384399 435.59906 C -311.110046 381.878845 -420.244476 218.796753 -538.248413 175.798035 C -656.25238 132.799438 -783.126343 209.884033 -910 286.968689 C -910 286.968689 -910 1157 -910 1157 Z"/>
    <path id="path2" fill="#f7cc76" stroke="none" d="M 0 1080 C 0 1080 0 720 0 720 C 51.66975 679.643127 103.3395 639.286255 162 653 C 220.660492 666.713745 286.311737 734.498108 366 755 C 445.688263 775.501892 539.413513 748.721375 607 728 C 674.586487 707.278625 716.03418 692.616272 769 665 C 821.96582 637.383728 886.449768 596.813416 949 627 C 1011.550232 657.186584 1072.166748 758.130127 1129 779 C 1185.833252 799.869873 1238.883179 740.666138 1316 705 C 1393.116821 669.333862 1494.300659 657.205261 1569 695 C 1643.699341 732.794739 1691.914063 820.512756 1746 833 C 1800.085938 845.487244 1860.042969 782.743591 1920 720 C 1920 720 1920 1080 1920 1080 Z"/>
</svg>
