<svg width="1920" height="1080" viewBox="0 0 1920 1080" xmlns="http://www.w3.org/2000/svg"><rect width="1920" height="1080" fill="#ffffff"/><path d="M 0,1080 C 0,1080 0,270 0,270 C 101.4025641025641,237.55641025641023 202.8051282051282,205.1128205128205 327,185 C 451.1948717948718,164.8871794871795 598.1820512820512,157.1051282051282 694,194 C 789.8179487179488,230.8948717948718 834.4666666666667,312.46666666666664 932,303 C 1029.5333333333333,293.53333333333336 1179.9512820512819,193.02820512820514 1299,191 C 1418.0487179487181,188.97179487179486 1505.7282051282052,285.4205128205128 1604,315 C 1702.2717948717948,344.5794871794872 1811.1358974358973,307.2897435897436 1920,270 C 1920,270 1920,1080 1920,1080 Z" fill="#4000ff" opacity="0.15"/><path d="M 0,1080 C 0,1080 0,540 0,540 C 96.0538461538462,537.4000000000001 192.1076923076924,534.8000000000001 303,507 C 413.8923076923076,479.19999999999993 539.6230769230767,426.19999999999993 643,440 C 746.3769230769233,453.80000000000007 827.4000000000003,534.4000000000001 942,581 C 1056.5999999999997,627.5999999999999 1204.776923076923,640.1999999999999 1326,606 C 1447.223076923077,571.8000000000001 1541.4923076923078,490.8 1636,472 C 1730.5076923076922,453.2 1825.253846153846,496.6 1920,540 C 1920,540 1920,1080 1920,1080 Z" fill="#4000ff" opacity="0.3"/><path d="M 0,1080 C 0,1080 0,810 0,810 C 84.8923076923077,843.2589743589743 169.7846153846154,876.5179487179487 272,881 C 374.2153846153846,885.4820512820513 493.7538461538462,861.1871794871795 609,868 C 724.2461538461538,874.8128205128205 835.2,912.7333333333335 938,906 C 1040.8,899.2666666666665 1135.446153846154,847.8794871794872 1243,823 C 1350.553846153846,798.1205128205128 1471.0153846153846,799.7487179487179 1586,802 C 1700.9846153846154,804.2512820512821 1810.4923076923078,807.125641025641 1920,810 C 1920,810 1920,1080 1920,1080 Z" fill="#4000ff" opacity="0.44999999999999996"/></svg>