<?xml version="1.0" encoding="UTF-8"?>
<!-- Generated by Pixelmator Pro 3.5.6 -->
<svg width="1920" height="1080" viewBox="0 0 1920 1080" xmlns="http://www.w3.org/2000/svg">
    <path id="Path" fill="#ffffff" stroke="none" d="M 0 0 L 1920 0 L 1920 1080 L 0 1080 Z"/>
    <path id="path1" fill="#a5a5a5" stroke="none" opacity="0.2" d="M 0 1080 C 0 1080 0 360 0 360 C 77.583504 312.112366 155.167007 264.224731 216 247 C 276.832977 229.775269 320.915436 243.213379 375 283 C 429.084564 322.786621 493.171204 388.921753 561 398 C 628.828796 407.078247 700.39978 359.099731 772 307 C 843.60022 254.900269 915.229675 198.679443 976 230 C 1036.770386 261.320557 1086.681519 380.182617 1147 429 C 1207.318481 477.817383 1278.044067 456.59021 1341 469 C 1403.955933 481.40979 1459.141968 527.456482 1518 483 C 1576.858032 438.543518 1639.388062 303.583862 1707 268 C 1774.611938 232.416138 1847.30603 296.208069 1920 360 C 1920 360 1920 1080 1920 1080 Z"/>
    <path id="path2" fill="#9470ff" stroke="none" opacity="0.4" d="M 0 1080 C 0 1080 0 720 0 720 C 51.66975 679.643127 103.3395 639.286255 162 653 C 220.660492 666.713745 286.311737 734.498108 366 755 C 445.688263 775.501892 539.413513 748.721375 607 728 C 674.586487 707.278625 716.03418 692.616272 769 665 C 821.96582 637.383728 886.449768 596.813416 949 627 C 1011.550232 657.186584 1072.166748 758.130127 1129 779 C 1185.833252 799.869873 1238.883179 740.666138 1316 705 C 1393.116821 669.333862 1494.300659 657.205261 1569 695 C 1643.699341 732.794739 1691.914063 820.512756 1746 833 C 1800.085938 845.487244 1860.042969 782.743591 1920 720 C 1920 720 1920 1080 1920 1080 Z"/>
</svg>
