<?xml version="1.0" encoding="UTF-8"?>
<!-- Generated by Pixelmator Pro 3.5.6 -->
<svg width="1920" height="1080" viewBox="0 0 1920 1080" xmlns="http://www.w3.org/2000/svg">
    <path id="Path" fill="#ffffff" stroke="none" d="M 0 0 L 1920 0 L 1920 1080 L 0 1080 Z"/>
    <path id="path1" fill="#a5a5a5" stroke="none" opacity="0.2" d="M 0 1097 C 0 1097 0 218.587036 0 218.587036 C 77.583504 160.163269 155.167007 101.739502 216 80.725037 C 276.832977 59.710571 320.915436 76.105286 375 124.645691 C 429.084564 173.186035 493.171204 253.872131 561 264.947754 C 628.828796 276.023376 700.39978 217.488708 772 153.926086 C 843.60022 90.363464 915.229675 21.773071 976 59.984741 C 1036.770386 98.19635 1086.681519 243.210205 1147 302.768311 C 1207.318481 362.326355 1278.044067 336.428833 1341 351.569031 C 1403.955933 366.709167 1459.141968 422.886963 1518 368.649292 C 1576.858032 314.41156 1639.388062 149.758362 1707 106.345398 C 1774.611938 62.932495 1847.30603 140.759766 1920 218.587036 C 1920 218.587036 1920 1097 1920 1097 Z"/>
    <path id="path2" fill="#9470ff" stroke="none" opacity="0.4" d="M 0 1080 C 0 1080 0 720 0 720 C 51.66975 679.643127 103.3395 639.286255 162 653 C 220.660492 666.713745 286.311737 734.498108 366 755 C 445.688263 775.501892 539.413513 748.721375 607 728 C 674.586487 707.278625 716.03418 692.616272 769 665 C 821.96582 637.383728 886.449768 596.813416 949 627 C 1011.550232 657.186584 1072.166748 758.130127 1129 779 C 1185.833252 799.869873 1238.883179 740.666138 1316 705 C 1393.116821 669.333862 1494.300659 657.205261 1569 695 C 1643.699341 732.794739 1691.914063 820.512756 1746 833 C 1800.085938 845.487244 1860.042969 782.743591 1920 720 C 1920 720 1920 1080 1920 1080 Z"/>
</svg>
