<svg width="1920" height="1080" viewBox="0 0 1920 1080" xmlns="http://www.w3.org/2000/svg"><rect width="1920" height="1080" fill="#ffffff"/><path d="M 0,1080 C 0,1080 0,360 0,360 C 120.39743589743588,346.3948717948718 240.79487179487177,332.7897435897436 352,342 C 463.20512820512823,351.2102564102564 565.2179487179487,383.2358974358974 662,404 C 758.7820512820513,424.7641025641026 850.3333333333335,434.26666666666665 951,415 C 1051.6666666666665,395.73333333333335 1161.4487179487178,347.6974358974359 1277,348 C 1392.5512820512822,348.3025641025641 1513.871794871795,396.9435897435897 1622,407 C 1730.128205128205,417.0564102564103 1825.0641025641025,388.5282051282052 1920,360 C 1920,360 1920,1080 1920,1080 Z" fill="#9470ff" opacity="0.19999999999999998"/><path d="M 0,1080 C 0,1080 0,720 0,720 C 133.07692307692307,742.0230769230769 266.15384615384613,764.0461538461539 375,785 C 483.84615384615387,805.9538461538461 568.4615384615385,825.8384615384615 647,792 C 725.5384615384615,758.1615384615385 798.0000000000001,670.5999999999999 908,674 C 1017.9999999999999,677.4000000000001 1165.5384615384614,771.7615384615385 1298,812 C 1430.4615384615386,852.2384615384615 1547.846153846154,838.3538461538461 1649,814 C 1750.153846153846,789.6461538461539 1835.0769230769229,754.823076923077 1920,720 C 1920,720 1920,1080 1920,1080 Z" fill="#9470ff" opacity="0.39999999999999997"/></svg>