<svg width="1920" height="1080" viewBox="0 0 1920 1080" xmlns="http://www.w3.org/2000/svg"><rect width="1920" height="1080" fill="#ffffff"/><path d="M 0,1080 C 0,1080 0,360 0,360 C 241.2,402.1333333333333 482.4,444.2666666666667 710,440 C 937.6,435.7333333333333 1151.6,385.0666666666667 1351,364 C 1550.4,342.9333333333333 1735.2,351.46666666666664 1920,360 C 1920,360 1920,1080 1920,1080 Z" fill="#9470ff" opacity="0.19999999999999998"/><path d="M 0,1080 C 0,1080 0,720 0,720 C 212.8,794.1333333333333 425.6,868.2666666666667 620,844 C 814.4,819.7333333333333 990.4000000000001,697.0666666666667 1204,660 C 1417.6,622.9333333333333 1668.8,671.4666666666667 1920,720 C 1920,720 1920,1080 1920,1080 Z" fill="#9470ff" opacity="0.39999999999999997"/></svg>