<svg width="1920" height="1080" viewBox="0 0 1920 1080" xmlns="http://www.w3.org/2000/svg"><rect width="1920" height="1080" fill="#ffffff"/><path d="M 0,1080 C 0,1080 0,270 0,270 C 213.06666666666666,317.8666666666667 426.1333333333333,365.7333333333333 615,344 C 803.8666666666667,322.2666666666667 968.5333333333333,230.93333333333334 1182,207 C 1395.4666666666667,183.06666666666666 1657.7333333333333,226.53333333333333 1920,270 C 1920,270 1920,1080 1920,1080 Z" fill="#4000ff" opacity="0.15"/><path d="M 0,1080 C 0,1080 0,540 0,540 C 236.5333333333333,600.5333333333333 473.0666666666666,661.0666666666666 684,628 C 894.9333333333334,594.9333333333334 1080.2666666666669,468.2666666666667 1282,438 C 1483.7333333333331,407.7333333333333 1701.8666666666666,473.8666666666667 1920,540 C 1920,540 1920,1080 1920,1080 Z" fill="#4000ff" opacity="0.3"/><path d="M 0,1080 C 0,1080 0,810 0,810 C 158.40000000000003,846.5333333333333 316.80000000000007,883.0666666666667 566,872 C 815.1999999999999,860.9333333333333 1155.2,802.2666666666665 1396,784 C 1636.8,765.7333333333335 1778.4,787.8666666666668 1920,810 C 1920,810 1920,1080 1920,1080 Z" fill="#4000ff" opacity="0.44999999999999996"/></svg>