<svg width="1920" height="1080" viewBox="0 0 1920 1080" xmlns="http://www.w3.org/2000/svg"><rect width="1920" height="1080" fill="#ffffff"/><path d="M 0,1080 C 0,1080 0,270 0,270 C 91.3153846153846,303.36153846153843 182.6307692307692,336.7230769230769 292,350 C 401.3692307692308,363.2769230769231 528.7923076923078,356.4692307692308 634,364 C 739.2076923076922,371.5307692307692 822.1999999999998,393.4 931,352 C 1039.8000000000002,310.6 1174.4076923076925,205.93076923076922 1291,213 C 1407.5923076923075,220.06923076923078 1506.1692307692308,338.8769230769231 1608,367 C 1709.8307692307692,395.1230769230769 1814.9153846153845,332.5615384615385 1920,270 C 1920,270 1920,1080 1920,1080 Z" fill="#9470ff" opacity="0.15"/><path d="M 0,1080 C 0,1080 0,540 0,540 C 137.6076923076923,568.9564102564102 275.2153846153846,597.9128205128205 364,615 C 452.7846153846154,632.0871794871795 492.7461538461538,637.3051282051281 590,639 C 687.2538461538462,640.6948717948719 841.8,638.8666666666668 953,605 C 1064.2,571.1333333333332 1132.053846153846,505.22820512820516 1239,488 C 1345.946153846154,470.77179487179484 1491.9846153846154,502.2205128205128 1612,519 C 1732.0153846153846,535.7794871794872 1826.0076923076922,537.8897435897436 1920,540 C 1920,540 1920,1080 1920,1080 Z" fill="#9470ff" opacity="0.3"/><path d="M 0,1080 C 0,1080 0,810 0,810 C 93.84871794871793,783.5897435897436 187.69743589743587,757.1794871794872 294,765 C 400.30256410256413,772.8205128205128 519.0589743589744,814.8717948717949 651,845 C 782.9410256410256,875.1282051282051 928.0666666666666,893.3333333333334 1017,878 C 1105.9333333333334,862.6666666666666 1138.674358974359,813.7948717948717 1229,780 C 1319.325641025641,746.2051282051283 1467.2358974358974,727.4871794871796 1592,735 C 1716.7641025641026,742.5128205128204 1818.3820512820512,776.2564102564102 1920,810 C 1920,810 1920,1080 1920,1080 Z" fill="#9470ff" opacity="0.44999999999999996"/></svg>