<svg width="544" height="128" viewBox="0 0 544 128" fill="none" xmlns="http://www.w3.org/2000/svg">
<g transform="translate(-97.695 -17)">
<path d="M155.442 17.065C169.648 17.065 180.697 20.6552 188.59 27.9687C196.482 35.2823 200.428 45.2552 200.428 57.8876C200.428 70.52 196.482 80.759 188.59 87.9395C180.697 95.253 169.648 98.8432 155.442 98.8432H122.556V144.852H97.695V17.065H155.442ZM151.364 78.7644C159.125 78.7644 165.044 76.9027 169.122 73.3124C173.2 69.7222 175.304 64.5362 175.304 58.0206C175.304 51.5049 173.2 46.3189 169.122 42.7287C165.044 39.1384 159.125 37.2769 151.364 37.2769H122.556V78.8973H151.495L151.364 78.7644Z" fill="white"/>
<path d="M272.25 17.065C286.588 17.065 297.638 20.6552 305.661 27.8358C313.685 35.0163 317.631 44.8563 317.631 57.2228C317.631 69.5891 313.685 79.4291 305.661 86.6098C297.638 93.7902 286.588 97.3805 272.25 97.3805H236.076V144.985H211.215V17.065H272.25ZM268.698 77.0357C276.327 77.0357 282.247 75.307 286.325 71.9827C290.402 68.5254 292.508 63.6055 292.508 57.2228C292.508 50.84 290.402 45.9201 286.325 42.4627C282.247 38.8725 276.327 37.1438 268.698 37.1438H236.076V77.0357H268.698ZM257.912 88.2054H285.404L320.262 144.985H291.324L257.78 88.2054H257.912Z" fill="white"/>
<path d="M356.171 144.985H331.31V17.065H356.171V144.985Z" fill="white"/>
<path d="M468.639 17.065H504.681V144.985H481.266V48.9784H480.609L448.513 144.985H429.833L397.868 48.9784H397.212V144.985H374.323V17.065H410.497L439.174 107.885H439.831L468.506 17.065H468.639Z" fill="white"/>
<path d="M614.653 144.985L577.294 38.7395H576.769L539.674 144.985H513.235L561.116 17.065H593.606L641.486 144.985H614.785H614.653ZM547.831 94.0562H606.893L616.757 113.47H538.621L547.831 94.0562Z" fill="white"/>
</g>
</svg>
