<svg width="1989" height="101" viewBox="0 0 1989 101" fill="none" xmlns="http://www.w3.org/2000/svg">
<path fill-rule="evenodd" clip-rule="evenodd" d="M530.394 0.014658C477.339 -0.16503 424.265 1.75684 371.214 3.25294C275.308 5.95216 179.402 8.542 83.5349 12.3233C59.992 13.2413 36.5115 17.9717 13.2771 22.4717C7.91388 23.4991 -0.58222 31.542 0.0271548 35.0342C1.14435 41.4209 7.01153 48.1358 12.6795 52.2569C17.5037 55.7686 24.7927 57.0967 31.0388 57.1866C58.0701 57.5811 85.117 57.7256 112.113 56.9522C168.37 55.335 224.593 52.6163 280.831 51.2139C378.788 48.7647 476.785 46.753 574.757 45.0967C598.191 44.6983 621.62 46.7139 645.07 47.0928C696.503 47.9366 747.941 48.9483 799.378 49.0538C866.738 49.1983 934.136 47.378 1001.48 48.6202C1044.24 49.4327 1086.88 55.1709 1129.64 56.8819C1144.84 57.4952 1160.21 52.2022 1175.6 50.7295C1182.31 50.0811 1189.44 51.5928 1196.1 53.2842C1204.27 55.3702 1212.04 60.6788 1220.16 61.1124C1294.22 64.9991 1368.31 68.1827 1442.4 71.4249C1452.79 71.8741 1463.21 71.4952 1473.78 71.4952V62.0303C1484.86 63.2881 1495.94 64.585 1507.03 65.8624C1506.81 67.3936 1506.6 68.9209 1506.4 70.4327C1501.88 71.335 1497.37 72.253 1492.85 73.1514C1508.69 74.4991 1523.28 70.4327 1538.13 67.753C1542.09 67.0303 1546.79 70.5616 1551.16 72.1631C1549 73.9639 1546.82 75.8155 1545.33 77.0733C1580.94 80.2764 1616.51 85.1749 1652.14 85.8233C1665.75 86.0733 1682.59 96.042 1695.49 78.6202C1698.21 74.9678 1712.76 79.6124 1721.73 81.1436C1749.65 85.8584 1777.49 90.9522 1805.4 95.7374C1806.01 95.8467 1806.99 93.9561 1807.78 92.9834C1804.92 91.7959 1802.07 90.5733 1799.23 89.3858C1804.36 85.7295 1810.67 83.2491 1813.45 85.3897C1829.64 97.8975 1848.14 99.534 1867.44 99.663C1888.21 99.788 1909.01 101.23 1929.78 100.905C1940.67 100.741 1952.27 99.878 1962.19 95.9014C1971.21 92.2803 1978.37 84.0381 1988.88 75.8702C1982.47 55.3155 1965.97 53.7139 1946.71 55.7491C1929.71 57.5459 1912.48 59.0967 1895.44 58.4834C1864.79 57.3858 1834.21 54.1631 1803.56 52.5811C1731.62 48.8194 1659.61 46.1006 1587.67 41.8194C1504.19 36.835 1420.83 29.8702 1337.32 25.1553C1242.55 19.8272 1147.71 15.3272 1052.84 11.7999C956.687 8.21778 860.476 5.91309 764.281 3.68263C686.339 1.88184 608.355 0.299814 530.394 0.014658Z" fill="#E3CA20"/>
</svg>
