<svg width="240" height="314" viewBox="0 0 240 314" fill="none" xmlns="http://www.w3.org/2000/svg">
<path d="M9.45969 284.268C9.45969 284.268 19.2368 247.141 22.0488 240.686C24.8608 234.23 51.7037 220.649 68.1977 231.601C84.6916 242.553 88.2224 252.067 88.8321 259.072C89.4417 266.078 83.7865 283.543 82.4198 286.88C81.0532 290.216 61.6749 310.452 40.4871 306.568C19.2994 302.685 9.45969 284.268 9.45969 284.268Z" fill="#FBA569"/>
<path d="M84.528 276.745C84.528 276.745 92.79 270.56 103.79 264.56C114.79 258.56 130.251 254.032 145.52 237.296C160.789 220.56 165.79 218.56 158.79 205.56C151.79 192.56 93.79 160.56 76.7898 171.56C59.7898 182.56 55.7898 170.56 47.7898 184.56C39.7898 198.56 22.2018 232.382 21.9958 243.971C21.7898 255.56 20.7898 267.56 43.7898 271.56C66.7898 275.56 84.528 276.745 84.528 276.745Z" fill="#FBA569"/>
<path d="M84.528 276.745C84.528 276.745 92.79 270.56 103.79 264.56C114.79 258.56 130.251 254.032 145.52 237.296C160.789 220.56 165.79 218.56 158.79 205.56C151.79 192.56 93.79 160.56 76.7898 171.56C59.7898 182.56 55.7898 170.56 47.7898 184.56C39.7898 198.56 22.2018 232.382 21.9958 243.971C21.7898 255.56 20.7898 267.56 43.7898 271.56C66.7898 275.56 84.528 276.745 84.528 276.745Z" stroke="#FBA569" stroke-miterlimit="10"/>
<path d="M165.664 128.025C165.664 128.025 152.791 148.56 147.791 153.56C142.791 158.56 134.573 170.896 136.182 179.728C137.791 188.56 161.791 205.56 171.791 186.56C181.791 167.56 189.791 149.56 192.791 138.56C195.287 129.407 184.791 135.56 181.791 128.56C178.791 121.56 165.664 128.025 165.664 128.025Z" fill="#FBA569"/>
<path d="M165.664 128.025C165.664 128.025 152.791 148.56 147.791 153.56C142.791 158.56 134.573 170.896 136.182 179.728C137.791 188.56 161.791 205.56 171.791 186.56C181.791 167.56 189.791 149.56 192.791 138.56C195.287 129.407 184.791 135.56 181.791 128.56C178.791 121.56 165.664 128.025 165.664 128.025Z" stroke="#FBA569" stroke-miterlimit="10"/>
<path d="M194.789 75.56C194.789 75.56 185.789 69.56 178.789 79.56C171.789 89.56 170.789 95.5599 169.789 106.56C168.789 117.56 166.535 124.49 165.662 128.025C164.789 131.56 164.136 145.652 174.463 147.606C184.79 149.56 191.418 145.331 193.604 135.945C195.79 126.559 192.789 104.56 192.789 104.56C192.789 104.56 192.789 91.56 193.789 85.56C194.789 79.56 194.789 75.56 194.789 75.56Z" fill="#FBA569"/>
<path d="M194.789 75.56C194.789 75.56 185.789 69.56 178.789 79.56C171.789 89.56 170.789 95.5599 169.789 106.56C168.789 117.56 166.535 124.49 165.662 128.025C164.789 131.56 164.136 145.652 174.463 147.606C184.79 149.56 191.418 145.331 193.604 135.945C195.79 126.559 192.789 104.56 192.789 104.56C192.789 104.56 192.789 91.56 193.789 85.56C194.789 79.56 194.789 75.56 194.789 75.56Z" stroke="#FBA569" stroke-miterlimit="10"/>
<path d="M170.289 120.06C168.289 122.06 161.289 134.06 160.289 137.06C159.289 140.06 152.289 154.06 153.289 161.06C154.289 168.06 162.289 202.06 166.289 195.06C170.289 188.06 174.289 184.06 176.289 179.06C178.289 174.06 181.289 167.06 180.289 162.06C179.289 157.06 176.289 141.06 174.289 137.06C172.289 133.06 170.289 134.06 172.289 131.06C174.289 128.06 176.289 124.06 174.289 121.06C172.289 118.06 170.289 120.06 170.289 120.06Z" fill="#B76D3C"/>
<path d="M194.789 79.5601C194.789 79.5601 188.789 80.5601 187.789 81.5601C186.789 82.5601 185.789 90.5601 185.789 92.5601C185.789 94.5601 185.789 97.5601 187.789 98.5601C189.789 99.5601 193.789 99.5601 192.789 98.5601C191.789 97.5601 188.789 99.5601 187.789 95.5601C186.789 91.5601 187.789 87.5601 187.789 86.5601C187.789 85.5601 188.789 82.5601 189.789 82.5601C190.789 82.5601 190.789 83.5601 192.789 83.5601C194.789 83.5601 194.789 79.5601 194.789 79.5601Z" fill="#B76D3C"/>
<path d="M188.289 74.0601C188.289 74.0601 179.289 81.0601 177.289 92.0601C175.289 103.06 174.289 115.06 176.289 118.06C178.289 121.06 179.289 128.06 179.289 128.06C179.289 128.06 169.289 125.06 169.289 119.06C169.289 113.06 169.289 99.0601 171.289 92.0601C173.289 85.0601 179.289 78.0601 182.289 76.0601C185.289 74.0601 188.289 74.0601 188.289 74.0601Z" fill="#B76D3C"/>
<path d="M19.7891 257.06C19.789 276.114 35.235 291.56 54.289 291.56C73.343 291.56 88.7893 276.114 88.7893 257.06C88.7893 238.006 73.3433 222.56 54.2893 222.56C35.2353 222.56 19.7892 238.006 19.7891 257.06Z" fill="#FBA569"/>
<path d="M19.7891 257.06C19.789 276.114 35.235 291.56 54.289 291.56C73.343 291.56 88.7893 276.114 88.7893 257.06C88.7893 238.006 73.3433 222.56 54.2893 222.56C35.2353 222.56 19.7892 238.006 19.7891 257.06Z" stroke="#FBA569" stroke-miterlimit="10"/>
<path d="M75.7904 178.56C68.7905 171.56 56.7915 175.56 51.9184 179.288C47.0454 183.016 41.7904 193.56 36.7903 203.56C31.7903 213.56 21.7901 247.149 21.7901 247.149L20.9961 249.559C20.9961 249.559 34.79 265.56 49.79 273.56C64.7899 281.56 86.7904 269.56 88.8794 260.472C90.9684 251.384 90.7904 205.56 90.7904 195.56C90.7904 185.56 82.7904 185.56 75.7904 178.56Z" fill="#FBA569"/>
<path d="M75.7904 178.56C68.7905 171.56 56.7915 175.56 51.9184 179.288C47.0454 183.016 41.7904 193.56 36.7903 203.56C31.7903 213.56 21.7901 247.149 21.7901 247.149L20.9961 249.559C20.9961 249.559 34.79 265.56 49.79 273.56C64.7899 281.56 86.7904 269.56 88.8794 260.472C90.9684 251.384 90.7904 205.56 90.7904 195.56C90.7904 185.56 82.7904 185.56 75.7904 178.56Z" stroke="#FBA569" stroke-miterlimit="10"/>
<path d="M44.7891 195.56C44.7889 208.263 55.0857 218.56 67.7887 218.56C80.4917 218.56 90.7889 208.263 90.7889 195.56C90.7889 182.857 80.4924 172.56 67.7894 172.56C55.0864 172.56 44.7892 182.857 44.7891 195.56Z" fill="#FBA569"/>
<path d="M44.7891 195.56C44.7889 208.263 55.0857 218.56 67.7887 218.56C80.4917 218.56 90.7889 208.263 90.7889 195.56C90.7889 182.857 80.4924 172.56 67.7894 172.56C55.0864 172.56 44.7892 182.857 44.7891 195.56Z" stroke="#FBA569" stroke-miterlimit="10"/>
<path d="M47.7891 184.56C47.7891 184.56 73.6066 145.012 79.1977 140.786C84.7888 136.56 100.449 133.413 103.619 137.487C106.789 141.561 112.89 152.415 109.34 159.488C105.79 166.561 91.6468 199.058 88.2178 204.809C84.7888 210.56 72.7888 202.56 63.7889 195.56C54.789 188.56 49.9361 180.608 49.9361 180.608" fill="#FBA569"/>
<path d="M47.7891 184.56C47.7891 184.56 73.6066 145.012 79.1977 140.786C84.7888 136.56 100.449 133.413 103.619 137.487C106.789 141.561 112.89 152.415 109.34 159.488C105.79 166.561 91.6468 199.058 88.2178 204.809C84.7888 210.56 72.7888 202.56 63.7889 195.56C54.789 188.56 49.9361 180.608 49.9361 180.608" stroke="#FBA569" stroke-miterlimit="10"/>
<path d="M75.7891 151.56C75.789 161.501 83.8479 169.56 93.7884 169.56C103.729 169.561 111.789 161.502 111.789 151.561C111.789 141.62 103.73 133.561 93.7894 133.56C83.8484 133.56 75.7893 141.619 75.7891 151.56Z" fill="#FBA569"/>
<path d="M75.7891 151.56C75.789 161.501 83.8479 169.56 93.7884 169.56C103.729 169.561 111.789 161.502 111.789 151.561C111.789 141.62 103.73 133.561 93.7894 133.56C83.8484 133.56 75.7893 141.619 75.7891 151.56Z" stroke="#FBA569" stroke-miterlimit="10"/>
<path d="M79.1992 140.786C83.7903 134.56 83.7903 134.56 85.7902 122.56C87.7902 110.56 86.7912 93.5601 96.7912 92.5611C106.791 91.5607 120.79 111.561 119.79 121.561C118.79 131.561 113.971 150.375 110.881 155.968C107.791 161.561 92.7902 164.56 87.7902 155.56C82.7901 146.56 79.1992 140.786 79.1992 140.786Z" fill="#FBA569"/>
<path d="M79.1992 140.786C83.7903 134.56 83.7903 134.56 85.7902 122.56C87.7902 110.56 86.7912 93.5601 96.7912 92.5611C106.791 91.5607 120.79 111.561 119.79 121.561C118.79 131.561 113.971 150.375 110.881 155.968C107.791 161.561 92.7902 164.56 87.7902 155.56C82.7901 146.56 79.1992 140.786 79.1992 140.786Z" stroke="#FBA569" stroke-miterlimit="10"/>
<path d="M75.7904 178.56C68.7905 171.56 63.7914 176.56 58.9184 180.288C54.0454 184.016 48.5404 196.06 43.5403 206.06C38.5403 216.06 31.7902 234.31 31.7902 234.31L31.4961 251.221C31.4961 251.221 34.79 265.56 49.79 273.56C64.7899 281.56 86.7904 269.56 88.8794 260.472C90.9684 251.384 90.7904 205.56 90.7904 195.56C90.7904 185.56 82.7904 185.56 75.7904 178.56Z" fill="#B76D3C"/>
<path d="M75.7904 178.56C68.7905 171.56 63.7914 176.56 58.9184 180.288C54.0454 184.016 48.5404 196.06 43.5403 206.06C38.5403 216.06 31.7902 234.31 31.7902 234.31L31.4961 251.221C31.4961 251.221 34.79 265.56 49.79 273.56C64.7899 281.56 86.7904 269.56 88.8794 260.472C90.9684 251.384 90.7904 205.56 90.7904 195.56C90.7904 185.56 82.7904 185.56 75.7904 178.56Z" stroke="#B76D3C" stroke-miterlimit="10"/>
<path d="M126.35 185.299C95.2823 167.08 61.0462 195.809 56.0462 205.809C51.0461 215.809 46.032 228.277 61.032 236.277C76.032 244.277 148.346 236.1 150.435 227.012C152.524 217.924 145.578 196.575 126.35 185.299Z" fill="#B76D3C"/>
<path d="M126.35 185.299C95.2823 167.08 61.0462 195.809 56.0462 205.809C51.0461 215.809 46.032 228.277 61.032 236.277C76.032 244.277 148.346 236.1 150.435 227.012C152.524 217.924 145.578 196.575 126.35 185.299Z" stroke="#B76D3C" stroke-miterlimit="10"/>
<path d="M103.62 137.487C100.45 133.413 88.5402 138.81 82.9491 143.036C77.358 147.262 58.5406 176.56 58.5406 176.56L53.9375 186.108C53.9375 186.108 54.7904 188.56 63.7903 195.56C72.7902 202.56 84.7902 210.56 88.2192 204.809C91.6482 199.058 105.791 166.561 109.341 159.488C112.891 152.415 106.79 141.561 103.62 137.487Z" fill="#B76D3C"/>
<path d="M103.62 137.487C100.45 133.413 88.5402 138.81 82.9491 143.036C77.358 147.262 58.5406 176.56 58.5406 176.56L53.9375 186.108C53.9375 186.108 54.7904 188.56 63.7903 195.56C72.7902 202.56 84.7902 210.56 88.2192 204.809C91.6482 199.058 105.791 166.561 109.341 159.488C112.891 152.415 106.79 141.561 103.62 137.487Z" stroke="#B76D3C" stroke-miterlimit="10"/>
<path d="M84.1988 143.286C88.7899 137.06 91.0399 136.81 93.0399 124.811C95.0399 112.811 89.7909 95.3099 99.7909 94.3109C109.791 93.3109 120.79 111.561 119.79 121.561C118.79 131.561 113.971 150.375 110.881 155.968C107.791 161.561 92.7899 164.561 87.7899 155.56C82.7898 146.56 84.1987 149.286 84.1987 149.286" fill="#B76D3C"/>
<path d="M84.1988 143.286C88.7899 137.06 91.0399 136.81 93.0399 124.811C95.0399 112.811 89.7909 95.3099 99.7909 94.3109C109.791 93.3109 120.79 111.561 119.79 121.561C118.79 131.561 113.971 150.375 110.881 155.968C107.791 161.561 92.7899 164.561 87.7899 155.56C82.7898 146.56 84.1987 149.286 84.1987 149.286" stroke="#B76D3C" stroke-miterlimit="10"/>
<path d="M25.1263 263.311C25.1263 263.311 20.242 233.701 32.3934 229.31C44.5448 224.919 50.4291 218.603 67.0975 219.677C83.766 220.751 92.7983 212.813 102.27 212.205C111.743 211.598 120.183 245.922 107.631 251.808C95.0803 257.694 81.3453 281.157 58.7926 286.398C36.2399 291.64 25.1263 263.311 25.1263 263.311Z" fill="#FBA569"/>
<path d="M134.789 204.56C134.789 214.501 142.848 222.56 152.789 222.56C162.73 222.56 170.789 214.501 170.789 204.56C170.789 194.619 162.73 186.56 152.789 186.56C142.848 186.56 134.789 194.619 134.789 204.56Z" fill="#FBA569"/>
<path d="M134.789 204.56C134.789 214.501 142.848 222.56 152.789 222.56C162.73 222.56 170.789 214.501 170.789 204.56C170.789 194.619 162.73 186.56 152.789 186.56C142.848 186.56 134.789 194.619 134.789 204.56Z" stroke="#FBA569" stroke-miterlimit="10"/>
<path d="M166.789 148.56C166.789 148.56 167.789 173.56 168.789 179.56C169.789 185.56 173.456 202.418 169.623 208.989C165.79 215.56 161.789 215.56 151.789 217.56C143.944 219.129 134.466 210.921 134.789 204.56C135.958 181.571 136.197 174.073 135.789 151.56C135.789 151.56 147.789 121.56 166.789 148.56Z" fill="#FBA569"/>
<path d="M166.789 148.56C166.789 148.56 167.789 173.56 168.789 179.56C169.789 185.56 173.456 202.418 169.623 208.989C165.79 215.56 161.789 215.56 151.789 217.56C143.944 219.129 134.466 210.921 134.789 204.56C135.958 181.571 136.197 174.073 135.789 151.56C135.789 151.56 147.789 121.56 166.789 148.56Z" stroke="#FBA569" stroke-miterlimit="10"/>
<path d="M135.625 149.895C135.625 158.547 142.638 165.56 151.29 165.56C159.942 165.56 166.955 158.547 166.955 149.895C166.955 141.243 159.942 134.23 151.29 134.23C142.638 134.23 135.625 141.243 135.625 149.895Z" fill="#FBA569"/>
<path d="M135.625 149.895C135.625 158.547 142.638 165.56 151.29 165.56C159.942 165.56 166.955 158.547 166.955 149.895C166.955 141.243 159.942 134.23 151.29 134.23C142.638 134.23 135.625 141.243 135.625 149.895Z" stroke="#FBA569" stroke-miterlimit="10"/>
<path d="M111.791 87.56L129.791 106.56L160.604 136.385C160.604 136.385 166.297 141.652 166.544 147.606C166.791 153.56 158.791 164.56 150.791 161.56C142.791 158.56 139.975 163.533 138.383 159.046C136.791 154.559 128.791 142.56 124.791 138.56C120.791 134.56 102.791 120.56 101.791 111.56C100.791 102.56 98.7914 97.5599 102.791 91.56C106.791 85.56 111.791 87.56 111.791 87.56Z" fill="#FBA569"/>
<path d="M111.791 87.56L129.791 106.56L160.604 136.385C160.604 136.385 166.297 141.652 166.544 147.606C166.791 153.56 158.791 164.56 150.791 161.56C142.791 158.56 139.975 163.533 138.383 159.046C136.791 154.559 128.791 142.56 124.791 138.56C120.791 134.56 102.791 120.56 101.791 111.56C100.791 102.56 98.7914 97.5599 102.791 91.56C106.791 85.56 111.791 87.56 111.791 87.56Z" stroke="#FBA569" stroke-miterlimit="10"/>
<path d="M110.289 88.0601C110.289 88.0601 112.289 100.06 113.289 101.06C114.289 102.06 120.289 109.06 123.289 109.06C126.289 109.06 128.289 108.06 127.289 107.06C126.289 106.06 124.289 108.06 122.289 107.06C120.289 106.06 116.289 103.06 115.289 101.06C114.289 99.0601 113.289 90.0601 112.289 89.0601C111.289 88.0601 110.289 88.0601 110.289 88.0601Z" fill="#B76D3C"/>
<path d="M110.289 88.0591C110.289 88.0591 106.289 97.0591 108.289 103.059C110.289 109.059 111.289 114.059 115.289 116.059C119.289 118.059 123.289 126.059 126.289 127.059C129.289 128.059 137.289 130.059 137.289 132.059C137.289 134.059 134.289 134.059 131.289 133.059C128.289 132.059 116.289 126.059 112.289 124.059C108.289 122.059 104.289 119.059 102.289 110.059C100.289 101.059 99.2804 98.746 101.289 94.0591C104.289 87.0592 110.289 88.0591 110.289 88.0591Z" fill="#B76D3C"/>
<path d="M112.289 124.06C112.289 124.06 134.289 151.06 135.289 152.06C136.289 153.06 144.289 154.06 142.289 152.06C140.289 150.06 134.289 139.06 132.289 136.06C130.289 133.06 120.289 121.06 117.289 120.06C114.289 119.06 112.289 124.06 112.289 124.06Z" fill="#B76D3C"/>
<path d="M131.289 151.06C131.289 151.06 145.289 151.06 147.289 154.06C149.289 157.06 161.289 214.06 161.289 218.06C161.289 222.06 160.289 224.06 160.289 224.06C160.289 224.06 146.289 159.06 144.289 157.06C142.289 155.06 134.289 154.06 132.289 153.06C130.289 152.06 131.289 151.06 131.289 151.06Z" fill="#B76D3C"/>
<path d="M117.789 218.06C117.789 229.382 126.967 238.56 138.289 238.56C149.611 238.56 158.789 229.382 158.789 218.06C158.789 206.738 149.611 197.56 138.289 197.56C126.967 197.56 117.789 206.738 117.789 218.06Z" fill="#FBA569"/>
<path d="M117.789 218.06C117.789 229.382 126.967 238.56 138.289 238.56C149.611 238.56 158.789 229.382 158.789 218.06C158.789 206.738 149.611 197.56 138.289 197.56C126.967 197.56 117.789 206.738 117.789 218.06Z" stroke="#FBA569" stroke-miterlimit="10"/>
<path d="M146.289 162.735C146.289 162.735 157.888 207.317 158.339 214.438C158.79 221.559 146.79 231.56 137.79 228.56C128.79 225.56 116.806 223.952 117.862 216.292C118.79 209.559 118.208 201.413 119.79 194.56C122.79 181.56 121.79 173.56 123.79 161.56" fill="#FBA569"/>
<path d="M146.289 162.735C146.289 162.735 157.888 207.317 158.339 214.438C158.79 221.559 146.79 231.56 137.79 228.56C128.79 225.56 116.806 223.952 117.862 216.292C118.79 209.559 118.208 201.413 119.79 194.56C122.79 181.56 121.79 173.56 123.79 161.56" stroke="#FBA569" stroke-miterlimit="10"/>
<path d="M122.789 165.56C122.789 172.187 128.162 177.56 134.789 177.56C141.416 177.56 146.789 172.187 146.789 165.56C146.789 158.933 141.416 153.56 134.789 153.56C128.162 153.56 122.789 158.933 122.789 165.56Z" fill="#FBA569"/>
<path d="M122.789 165.56C122.789 172.187 128.162 177.56 134.789 177.56C141.416 177.56 146.789 172.187 146.789 165.56C146.789 158.933 141.416 153.56 134.789 153.56C128.162 153.56 122.789 158.933 122.789 165.56Z" stroke="#FBA569" stroke-miterlimit="10"/>
<path d="M102.79 146.56C102.79 146.56 131.599 151.578 136.194 153.569C140.789 155.56 141.79 163.56 140.79 167.56C139.79 171.56 136.037 178.778 133.413 177.669C130.789 176.56 106.798 171.536 101.794 170.048C96.7898 168.56 95.7898 164.56 96.7898 158.56C97.7898 152.56 102.79 146.56 102.79 146.56Z" fill="#FBA569"/>
<path d="M102.79 146.56C102.79 146.56 131.599 151.578 136.194 153.569C140.789 155.56 141.79 163.56 140.79 167.56C139.79 171.56 136.037 178.778 133.413 177.669C130.789 176.56 106.798 171.536 101.794 170.048C96.7898 168.56 95.7898 164.56 96.7898 158.56C97.7898 152.56 102.79 146.56 102.79 146.56Z" stroke="#FBA569" stroke-miterlimit="10"/>
<path d="M91.7891 158.56C91.7891 165.187 97.1621 170.56 103.789 170.56C110.416 170.56 115.789 165.187 115.789 158.56C115.789 151.933 110.416 146.56 103.789 146.56C97.1621 146.56 91.7891 151.933 91.7891 158.56Z" fill="#FBA569"/>
<path d="M91.7891 158.56C91.7891 165.187 97.1621 170.56 103.789 170.56C110.416 170.56 115.789 165.187 115.789 158.56C115.789 151.933 110.416 146.56 103.789 146.56C97.1621 146.56 91.7891 151.933 91.7891 158.56Z" stroke="#FBA569" stroke-miterlimit="10"/>
<path d="M102.79 146.56C102.79 146.56 92.7901 145.56 81.79 150.56C70.79 155.56 59.79 157.56 60.79 162.56C61.79 167.56 64.79 179.56 74.79 176.56C84.7901 173.56 97.7901 171.56 103.79 170.56C109.79 169.56 109.79 157.56 108.79 156.56C107.79 155.56 102.79 146.56 102.79 146.56Z" fill="#FBA569"/>
<path d="M102.79 146.56C102.79 146.56 92.7901 145.56 81.79 150.56C70.79 155.56 59.79 157.56 60.79 162.56C61.79 167.56 64.79 179.56 74.79 176.56C84.7901 173.56 97.7901 171.56 103.79 170.56C109.79 169.56 109.79 157.56 108.79 156.56C107.79 155.56 102.79 146.56 102.79 146.56Z" stroke="#FBA569" stroke-miterlimit="10"/>
<path d="M128.448 170.082C130.29 171.06 138.289 178.06 138.289 183.06C138.289 188.06 150.289 233.06 149.289 235.06C148.289 237.06 146.289 237.06 145.289 237.06C144.289 237.06 143.289 236.06 141.289 227.06C139.289 218.06 132.289 189.06 131.289 184.06C130.289 179.06 126.289 177.06 126.289 175.06C126.289 173.06 128.448 170.082 128.448 170.082Z" fill="#B76D3C"/>
<path d="M91.2907 162.06C91.2907 162.06 100.291 166.06 104.291 166.06C108.291 166.06 128.291 169.06 129.291 170.06C130.291 171.06 129.291 178.06 122.291 175.06C115.291 172.06 93.6507 166.79 91.4707 165.425C89.2907 164.06 89.2907 161.06 91.2907 162.06Z" fill="#B76D3C"/>
<path d="M63.2881 160.06C63.2881 160.06 66.2881 168.06 68.2881 168.06C70.2881 168.06 75.2881 166.06 77.2881 165.06C79.2881 164.06 86.2881 155.06 86.2881 155.06C86.2881 155.06 75.2881 166.06 72.2881 166.06C69.2881 166.06 68.2881 163.06 67.2881 161.06C66.2881 159.06 62.2881 159.06 63.2881 160.06Z" fill="#B76D3C"/>
<path d="M61.2891 165.06C61.2891 165.06 64.2891 175.06 70.2891 175.06C76.2891 175.06 77.2891 173.06 79.2891 172.06C81.2891 171.06 91.2891 165.06 92.2891 165.06C93.2891 165.06 94.2891 160.06 91.2891 161.06C88.2891 162.06 79.2891 172.06 74.2891 172.06C69.2891 172.06 67.2891 172.06 65.2891 170.06L61.2891 165.06Z" fill="#B76D3C"/>
<path d="M97.7891 229.06C97.7891 242.591 108.758 253.56 122.289 253.56C135.82 253.56 146.789 242.591 146.789 229.06C146.789 215.529 135.82 204.56 122.289 204.56C108.758 204.56 97.7891 215.529 97.7891 229.06Z" fill="#FBA569"/>
<path d="M97.7891 229.06C97.7891 242.591 108.758 253.56 122.289 253.56C135.82 253.56 146.789 242.591 146.789 229.06C146.789 215.529 135.82 204.56 122.289 204.56C108.758 204.56 97.7891 215.529 97.7891 229.06Z" stroke="#FBA569" stroke-miterlimit="10"/>
<path d="M131.783 182.368C131.783 182.368 147.103 223.27 146.791 229.56C146.479 235.85 128.791 243.56 117.791 240.56C106.791 237.56 96.5705 231.66 97.6805 224.61C98.7905 217.56 105.791 188.56 105.791 187.06C105.791 185.56 131.783 182.368 131.783 182.368Z" fill="#FBA569"/>
<path d="M131.783 182.368C131.783 182.368 147.103 223.27 146.791 229.56C146.479 235.85 128.791 243.56 117.791 240.56C106.791 237.56 96.5705 231.66 97.6805 224.61C98.7905 217.56 105.791 188.56 105.791 187.06C105.791 185.56 131.783 182.368 131.783 182.368Z" stroke="#FBA569" stroke-miterlimit="10"/>
<path d="M105.789 187.06C105.789 194.516 111.833 200.56 119.289 200.56C126.745 200.56 132.789 194.516 132.789 187.06C132.789 179.604 126.745 173.56 119.289 173.56C111.833 173.56 105.789 179.604 105.789 187.06Z" fill="#FBA569"/>
<path d="M105.789 187.06C105.789 194.516 111.833 200.56 119.289 200.56C126.745 200.56 132.789 194.516 132.789 187.06C132.789 179.604 126.745 173.56 119.289 173.56C111.833 173.56 105.789 179.604 105.789 187.06Z" stroke="#FBA569" stroke-miterlimit="10"/>
<path d="M93.7911 167.56C93.7911 167.56 118.492 172.895 123.641 174.228C128.79 175.561 136.791 184.56 125.791 190.56C114.791 196.56 114.531 200.218 110.661 196.889C106.791 193.56 90.7691 189.736 87.7801 187.648C84.7911 185.56 93.7911 167.56 93.7911 167.56Z" fill="#FBA569"/>
<path d="M93.7911 167.56C93.7911 167.56 118.492 172.895 123.641 174.228C128.79 175.561 136.791 184.56 125.791 190.56C114.791 196.56 114.531 200.218 110.661 196.889C106.791 193.56 90.7691 189.736 87.7801 187.648C84.7911 185.56 93.7911 167.56 93.7911 167.56Z" stroke="#FBA569" stroke-miterlimit="10"/>
<path d="M82.7891 178.56C82.7891 184.635 87.7145 189.56 93.7895 189.56C99.8645 189.56 104.789 184.635 104.789 178.56C104.789 172.485 99.8645 167.56 93.7895 167.56C87.7145 167.56 82.789 172.485 82.7891 178.56Z" fill="#FBA569"/>
<path d="M82.7891 178.56C82.7891 184.635 87.7145 189.56 93.7895 189.56C99.8645 189.56 104.789 184.635 104.789 178.56C104.789 172.485 99.8645 167.56 93.7895 167.56C87.7145 167.56 82.789 172.485 82.7891 178.56Z" stroke="#FBA569" stroke-miterlimit="10"/>
<path d="M89.9785 168.067C89.9785 168.067 69.7891 180.56 69.7891 184.56C69.7892 188.56 73.7892 199.56 84.7895 195.56C95.7895 191.56 102.449 188.615 103.619 182.587C104.789 176.559 89.9785 168.067 89.9785 168.067Z" fill="#FBA569"/>
<path d="M89.9785 168.067C89.9785 168.067 69.7891 180.56 69.7891 184.56C69.7892 188.56 73.7892 199.56 84.7895 195.56C95.7895 191.56 102.449 188.615 103.619 182.587C104.789 176.559 89.9785 168.067 89.9785 168.067Z" stroke="#FBA569" stroke-miterlimit="10"/>
<path d="M96.6045 189.723C96.6045 189.723 102.919 191.9 105.314 193.206C107.709 194.512 115.355 196.22 115.355 197.067C115.355 197.914 111.873 197.538 108.673 197.067C105.473 196.596 95.4965 194.621 95.5905 192.55C95.6845 190.479 96.6045 189.723 96.6045 189.723Z" fill="#B76D3C"/>
<path d="M104.814 194.997C106.038 195.468 110.555 197.82 110.555 200.361C110.555 202.902 110.272 210.055 110.931 213.067C111.59 216.079 112.438 219.467 114.226 220.502C116.014 221.537 126.178 227.561 126.837 227.561C127.496 227.561 115.355 228.22 113.567 224.455C111.779 220.69 106.884 210.809 105.755 207.044C104.626 203.279 102.367 197.632 102.367 197.632L104.814 194.997Z" fill="#B76D3C"/>
<path d="M105.945 203.938C105.945 207.703 104.722 209.491 103.216 212.503C101.71 215.515 100.11 219.844 100.11 223.232C100.11 226.62 99.7329 237.162 99.4509 237.538C99.1689 237.914 93.6149 222.009 96.4389 215.421C99.2629 208.833 102.368 205.35 103.78 202.903C105.192 200.456 105.945 203.938 105.945 203.938Z" fill="#B76D3C"/>
<path d="M71.2891 185.059C71.2891 185.059 73.2891 186.059 74.2891 188.059C75.2891 190.059 76.2891 192.059 79.2891 191.059C82.2891 190.059 85.289 188.059 86.289 185.059C87.289 182.059 89.289 178.059 88.289 176.059C87.289 174.059 86.289 173.059 86.289 174.059C86.289 175.059 85.289 180.059 84.289 183.059C83.2891 186.059 78.2891 191.059 77.2891 189.059C76.2891 187.059 76.2891 187.059 74.2891 186.059C72.2891 185.059 71.2891 184.059 71.2891 185.059Z" fill="#B76D3C"/>
<path d="M106.289 180.059C106.289 180.059 100.289 191.059 95.289 194.059C90.289 197.059 84.289 198.059 81.2891 197.059C79.7081 196.532 73.0311 194.672 71.2891 192.059C69.2891 189.059 70.2891 187.059 70.2891 187.059C70.2891 187.059 75.2891 196.059 85.289 195.059C90.363 194.552 92.289 193.059 97.289 188.059C102.289 183.059 102.289 179.059 104.289 179.059C106.289 179.059 106.289 180.059 106.289 180.059Z" fill="#B76D3C"/>
<path d="M126.289 78.0601L139.289 52.0601" stroke="#FBA569" stroke-width="2" stroke-miterlimit="10"/>
<path d="M114.289 75.0601L117.289 45.0601" stroke="#FBA569" stroke-width="2" stroke-miterlimit="10"/>
<path d="M101.289 77.0601L93.2891 47.0601" stroke="#FBA569" stroke-width="2" stroke-miterlimit="10"/>
<path d="M89.2891 83.0601L70.2891 60.0601" stroke="#FBA569" stroke-width="2" stroke-miterlimit="10"/>
<path d="M81.2891 93.0601L57.2891 78.0601" stroke="#FBA569" stroke-width="2" stroke-miterlimit="10"/>
<path d="M30.6245 37.7744L30.3685 48.4783L39.3996 45.5985C39.3996 45.5985 41.8429 44.0129 42.3815 45.2367C42.92 46.4604 40.9741 47.6817 40.9741 47.6817L34.5908 53.9239L42.1304 58.2754C42.1304 58.2754 45.0574 59.616 44.6541 60.5244C44.2509 61.4328 41.5015 61.3273 41.5015 61.3273L33.1324 61.0664L35.3167 69.0161C35.3167 69.0161 36.6308 71.5056 35.4071 72.0442C34.1834 72.5827 32.5777 69.9298 32.5777 69.9298L26.9505 64.4448L22.9463 71.612C22.9463 71.612 21.6058 74.5389 20.751 74.2574C19.8961 73.9759 20.0409 71.6484 20.0409 71.6484L20.0848 63.4491L11.2652 65.6502C11.2652 65.6502 9.21179 66.6271 8.83475 65.7704C8.45771 64.9137 11.999 61.6748 11.999 61.6748L16.9141 57.9056L8.86105 53.0502C8.86105 53.0502 6.54469 51.4387 6.98814 50.9519C7.43159 50.465 11.3205 50.5059 11.3205 50.5059L18.4069 50.6747L15.6616 41.9494C15.6616 41.9494 14.4431 39.3445 15.2385 38.9945C16.0338 38.6444 18.6312 41.227 18.6312 41.227L24.2245 46.7989L28.0961 38.6675C28.0961 38.6675 29.0082 35.9291 29.7821 36.0266C30.556 36.1242 30.6245 37.7744 30.6245 37.7744Z" fill="#4F46E5"/>
<path d="M175.811 8.94833C176.945 9.79253 174.031 24.3701 178.016 30.8603C182 37.3506 186.947 36.6246 186.103 37.7592C185.259 38.8938 177.198 39.066 174.666 42.4697C172.133 45.8735 166.686 63.855 165.552 63.0108C164.417 62.1666 165.207 46.8899 163.201 40.1093C161.196 33.3287 151.855 31.6672 152.7 30.5326C153.544 29.398 164.019 31.9037 168.24 26.2307C172.461 20.5577 174.676 8.10412 175.811 8.94833Z" fill="#4F46E5"/>
<path d="M128.759 5.46541L125.672 11.9826L132.889 12.945C132.889 12.945 134.248 13.4166 133.034 13.9344C131.819 14.4523 126.762 16.3547 126.762 16.3547L129.947 20.4516C129.947 20.4516 131.397 22.0289 130.908 22.2956C130.42 22.5624 128.326 21.5658 128.326 21.5658L123.978 19.7033L123.748 26.415C123.748 26.415 123.893 27.4044 122.903 27.5496C121.914 27.6948 121.624 25.716 121.624 25.716L119.908 20.9142L115.397 24.6084C115.397 24.6084 114.182 25.5345 113.656 25.0851C113.131 24.6357 114.117 22.7748 114.117 22.7748L116.303 18.1736C116.303 18.1736 109.099 17.9209 108.954 16.9315C108.809 15.9421 115.529 13.7753 115.529 13.7753L111.319 8.97882C111.319 8.97882 109.815 7.23474 110.804 7.08955C111.794 6.94435 117.979 10.0896 117.979 10.0896L118.284 2.95976C118.284 2.95976 118.467 1.94747 119.128 1.82516C119.789 1.70286 120.094 2.82954 120.094 2.82954L122.269 9.44999L126.78 5.7558C126.78 5.7558 128.329 4.15493 128.614 4.476C129.025 4.94014 128.759 5.46541 128.759 5.46541Z" fill="#4F46E5"/>
<path d="M201.088 16.5319C201.088 16.5319 214.01 12.2852 216.992 21.8302C219.974 31.3751 210.429 34.3574 208.449 35.3952C206.468 36.4331 202.865 36.3017 202.412 33.5098C201.958 30.7179 211.503 27.7357 216.013 33.4509C220.523 39.1661 223.183 42.316 219.675 47.1837C216.167 52.0513 207.433 55.6182 206.527 50.0345C205.62 44.4507 220.486 47.7684 221.393 53.3521C222.299 58.9359 221.357 61.9544 219.018 65.1995C216.679 68.4446 212.491 69.1244 212.491 69.1244" stroke="#FBA569" stroke-width="4" stroke-miterlimit="10"/>
<path d="M61.8833 5.06854C62.4506 5.49064 62.3458 15.1078 68.0188 19.3288C73.6918 23.5498 78.7705 20.2777 78.4936 21.8344C78.2167 23.3911 72.5572 22.7056 69.4708 29.2228C66.3844 35.74 69.2478 44.9216 67.8363 45.6341C66.4248 46.3465 65.395 35.8852 61.7008 31.3738C58.0066 26.8624 52.4923 27.1663 51.7798 25.7547C51.0673 24.3432 61.9642 26.2816 61.792 18.2212C61.6198 10.1607 61.316 4.64644 61.8833 5.06854Z" fill="#FBA569"/>
<path d="M61.8833 5.06854C62.4506 5.49064 62.3458 15.1078 68.0188 19.3288C73.6918 23.5498 78.7705 20.2777 78.4936 21.8344C78.2167 23.3911 72.5572 22.7056 69.4708 29.2228C66.3844 35.74 69.2478 44.9216 67.8363 45.6341C66.4248 46.3465 65.395 35.8852 61.7008 31.3738C58.0066 26.8624 52.4923 27.1663 51.7798 25.7547C51.0673 24.3432 61.9642 26.2816 61.792 18.2212C61.6198 10.1607 61.316 4.64644 61.8833 5.06854Z" stroke="#FBA569" stroke-miterlimit="10"/>
</svg>
